<svg width="38" height="42" viewBox="0 0 38 42" xmlns="http://www.w3.org/2000/svg"><title>Group</title><path d="M16.222 34.752c-4.999 0-8.766-2.492-8.766-5.795 0-3.864 3.873-4.811 7.145-4.917 4.968 1.826 8.792 4.204 11.384 7.073-1.667 1.708-4.286 3.64-9.763 3.64zm19.198-4.07c1.055-1.718 3.18-6.253 1.99-13.424l-.09-.409h-7.6s.41.948.545 3.835c.052 1.22-.17 2.84-.423 3.893a31.98 31.98 0 0 0-.831-.66 26.251 26.251 0 0 0-2.946-2.082c-2.423-1.565-6.277-3.396-9.089-4.735l-.816-.393c-2.537-1.208-3.901-3.332-3.477-5.41.292-1.442.91-2.453 1.885-3.085 1.287-.837 3.138-1.124 4.982-.754 1.005.199 2.405.743 3.918 1.563 2.299 1.25 3.801 3 3.811 3.015l5.524-5.448c-2.05-2.293-5.086-4.976-9.63-6.1A17.493 17.493 0 0 0 18.972 0c-3.198 0-6.352.8-8.427 2.152C7.923 3.852 6.179 6.52 5.5 9.864c-.63 3.083-.038 5.918 1.764 8.43C2.724 20.285.126 24.16.126 28.957.126 36.392 7.046 42 16.222 42c5.477 0 9.878-1.435 13.446-4.385.04.07.09.162.139.273.328.893.279 2.414.279 2.432l-.008.762h7.68l.006-.746c.002-.054.164-5.305-2.344-9.654z" fill="#F3B22D" fill-rule="evenodd"/></svg>