<svg width="85" height="85" viewBox="0 0 85 85" xmlns="http://www.w3.org/2000/svg"><title>ICON/AWARD</title><g stroke-width="2" fill="none" fill-rule="evenodd" stroke-linecap="round" stroke-linejoin="round"><path stroke="#3C3C3D" d="M60.827 66.536H8.69v-40.5h60.828v11.571"/><path d="M14.483 17.357L36.29 3.574m27.434 13.783l-21.79-13.85" stroke="#DDDBDB"/><path stroke="#3C3C3D" d="M60.647 75.214H0V17.357h78.207V40.5"/><path d="M36.207 2.893A2.894 2.894 0 0 1 39.103 0a2.894 2.894 0 1 1 0 5.786 2.894 2.894 0 0 1-2.896-2.893z" stroke="#DDDBDB"/><path stroke="#FCB718" d="M78.207 63.522V81l-8.69-5.785L60.827 81V63.522"/><path d="M55.034 52.071c0-7.988 6.484-14.464 14.483-14.464 8 0 14.483 6.476 14.483 14.464 0 7.99-6.484 14.465-14.483 14.465-7.999 0-14.483-6.476-14.483-14.465z" stroke="#FCB718"/><path d="M20.276 40.5H49.24M20.276 52.071h17.38" stroke="#3C3C3D"/></g></svg>