<svg width="85" height="85" viewBox="0 0 85 85" xmlns="http://www.w3.org/2000/svg"><title>ICON/Bank</title><g stroke-width="2" fill="none" fill-rule="evenodd" stroke-linecap="round" stroke-linejoin="round"><path d="M36.558 74.82V33.922m10.232 0V74.82m-35.348 0V33.922m11.163 0V74.82m38.139 0V33.922m11.163 0V74.82" stroke="#828080"/><path d="M37.488 19.616a5.451 5.451 0 0 1 5.449-5.453 5.451 5.451 0 0 1 5.448 5.453 5.451 5.451 0 0 1-5.448 5.453 5.451 5.451 0 0 1-5.449-5.453zM80.28 83H4v-8.18h76.28z" stroke="#444"/><path stroke="#444" d="M42.14 3L4 24.812v8.18h76.28v-8.18z"/></g></svg>