<svg width="85" height="85" viewBox="0 0 85 85" xmlns="http://www.w3.org/2000/svg"><title>ICON/Girl Chat</title><g stroke-width="2" fill="none" fill-rule="evenodd" stroke-linecap="round" stroke-linejoin="round"><path d="M58.138 25.99c-12.627 0-22.862 10.3-22.862 23.005v16.87S41.372 72 58.138 72C74.903 72 81 65.865 81 65.865v-16.87c0-12.705-10.235-23.004-22.862-23.004z" stroke="#FFD070"/><path d="M65.251 34.11c-4.158 5.443-10.662 8.963-17.994 8.963-1.619 0-3.196-.177-4.72-.502a16.943 16.943 0 0 0-1.344 6.628c0 9.304 7.466 16.847 16.676 16.847 9.21 0 16.676-7.543 16.676-16.847A16.847 16.847 0 0 0 65.25 34.11z" stroke="#FFD070"/><path d="M50.338 48.725c.892 0 1.614.726 1.614 1.624 0 .897-.722 1.623-1.614 1.623a1.618 1.618 0 0 1-1.614-1.623c0-.898.722-1.624 1.614-1.624zm15.062 0c.892 0 1.614.726 1.614 1.624 0 .897-.722 1.623-1.614 1.623a1.618 1.618 0 0 1-1.614-1.623c0-.898.722-1.624 1.614-1.624z" stroke="#828080"/><path d="M31.51 34.543c2.367-2.327 3.766-5.304 3.766-8.552C35.276 18.629 28.068 13 19.138 13 10.208 13 3 18.63 3 25.99c0 7.362 7.208 13.262 16.138 13.262 1.56 0 3.066-.216 4.519-.541l8.391 3.518-.538-7.686z" stroke="#000"/></g></svg>