<svg width="93" height="93" viewBox="0 0 93 93" xmlns="http://www.w3.org/2000/svg"><title>ICON/GLOBE</title><g stroke-width="2" fill="none" fill-rule="evenodd" stroke-linecap="round" stroke-linejoin="round"><path d="M43.681 78.494V90.57M15.302 67.626l-7.85 7.85M82.928 0l-7.85 7.85m-7.245-6.34c11.02 7.698 18.114 20.378 18.114 34.718 0 23.398-18.869 42.266-42.266 42.266-15.699 0-29.284-8.453-36.681-21.133M25.567 90.57h36.228" stroke="#444"/><path d="M64.965 14.944L22.397 57.512m0-42.568l42.568 42.568M43.681 6.038c16.674 0 30.19 13.516 30.19 30.19s-13.516 30.19-30.19 30.19-30.19-13.516-30.19-30.19 13.516-30.19 30.19-30.19z" stroke="#FCB718"/><path d="M22.334 57.576c-6.72-6.72-2.61-21.726 9.179-33.515 11.79-11.79 26.795-15.9 33.516-9.18 6.72 6.72 2.61 21.727-9.18 33.516-11.79 11.79-26.795 15.9-33.515 9.18z" stroke="#FCB718"/></g></svg>