<svg width="87" height="85" viewBox="0 0 87 85" xmlns="http://www.w3.org/2000/svg"><title>ICON/Hand Offering</title><g stroke-width="2" fill="none" fill-rule="evenodd" stroke-linecap="round" stroke-linejoin="round"><path d="M57 36c0-5.7 9-15 9-15s9 9.3 9 15c0 5.7-4.5 9-9 9s-9-3.3-9-9zM27 15c0-5.7 9-15 9-15s9 9.3 9 15c0 5.7-4.5 9-9 9s-9-3.3-9-9z" stroke="#FCB718"/><path d="M12 45h3c6.9 0 14.4 3.6 18 9h12c6 0 12 6 12 12H30" stroke="#3C3C3D"/><path d="M55.2 60H75c10.8 0 12 6 12 6L44.1 83.4c-3.3 1.5-7.2 1.2-10.5-.3L12 72M0 39h12v39H0z" stroke="#3C3C3D"/></g></svg>