<svg width="84" height="84" viewBox="0 0 84 84" xmlns="http://www.w3.org/2000/svg"><title>ICON/Hand Holding</title><g stroke-width="2" fill="none" fill-rule="evenodd" stroke-linecap="round" stroke-linejoin="round"><path d="M5.92 44.004C-1.617 33.098-.495 18.023 9.288 8.24 17.948-.42 31.26-2.002 41.685 2.97m25.179 54.987c2.245 2.245 5.773 2.245 8.019 0l.16-.16c2.085-2.086 2.245-5.614.16-7.86l-20.688-21.81m-17 48.113l5.613 5.613c2.245 2.245 5.774 2.245 8.019 0s2.245-5.774 0-8.019l-8.152-8.152" stroke="#444"/><path d="M51.147 73.834c2.245 2.245 5.774 2.245 8.019 0s2.245-5.773 0-8.019" stroke="#444"/><path d="M52.11 58.759l6.886 6.886c2.245 2.245 5.783 2.415 8.028.17 2.246-2.245 2.085-5.613-.16-7.858L59.807 50.9" stroke="#444"/><path d="M73.722 48.376c10.905-10.906 11.265-29.07.359-40.137-10.906-11.066-28.708-10.905-39.774 0L14.42 28.126s9.623 6.255 19.887-4.01c0 0 17.802 9.944 27.585.161M41.845 64.051c2.245 2.245 2.245 5.774 0 8.019l-5.934 5.934c-2.245 2.245-5.774 2.245-8.019 0s-2.245-5.774 0-8.019l5.934-5.934c2.406-2.085 5.934-2.085 8.019 0zM25.807 48.013c2.246 2.246 2.246 5.774 0 8.02l-5.934 5.933c-2.245 2.246-5.773 2.246-8.019 0-2.245-2.245-2.245-5.773 0-8.019l5.934-5.934c2.246-2.245 5.934-2.245 8.02 0z" stroke="#FCB718"/><path d="M17.788 39.995c2.246 2.245 2.246 5.773 0 8.018l-5.934 5.934c-2.245 2.246-5.773 2.246-8.018 0-2.246-2.245-2.246-5.773 0-8.019l5.934-5.933c2.245-2.246 5.773-2.246 8.018 0zm16.038 16.037c2.245 2.246 2.245 5.774 0 8.02l-5.934 5.933c-2.245 2.245-5.773 2.245-8.019 0-2.245-2.245-2.245-5.773 0-8.019l5.934-5.934c2.246-2.245 5.774-2.245 8.02 0z" stroke="#FCB718"/></g></svg>