<svg width="85" height="85" viewBox="0 0 85 85" xmlns="http://www.w3.org/2000/svg"><title>ICON/Home</title><g fill="none" fill-rule="evenodd" stroke-linecap="round"><path stroke="#FFD070" stroke-linejoin="bevel" fill="#FFD070" d="M67.349 51.922h6.535v6.535h-6.535z"/><path d="M83.158 42.328h-27.51M41.559 24.227l14.09 18.693v16.725" stroke="#444" stroke-width="2" stroke-linejoin="round"/><path stroke="#444" stroke-width="2" stroke-linejoin="round" d="M28.14 42.92l13.922-18.693h27.844l5.602 7.52 8.32 11.173v16.725H28.14zM2 43.01c0-8.317 10.693-17.822 10.693-17.822s10.694 9.605 10.694 17.823c0 5.905-4.788 10.693-10.694 10.693C6.788 53.704 2 48.916 2 43.011z"/><path d="M12.61 35.882v23.763m-7.046.045h14.258m-7.129-10.145l5.941-5.94M6.753 40.04l5.94 5.941" stroke="#828080" stroke-width="2" stroke-linejoin="round"/></g></svg>