<svg width="85" height="85" viewBox="0 0 85 85" xmlns="http://www.w3.org/2000/svg"><title>ICON/Key</title><g stroke-width="2" fill="none" fill-rule="evenodd" stroke-linecap="round"><path d="M66.942 3l-35.08 34.918c-7.65-2.038-16.143-.078-22.143 5.922C.76 52.8.76 67.323 9.72 76.28c8.958 8.96 23.482 8.96 32.44 0 6.001-6 7.961-14.493 5.923-22.141l8.155-8.318V35.115h10.705V24.41h10.705L83 19.058V3H66.942z" stroke="#444" stroke-linejoin="round"/><path d="M16.224 57.636a6.587 6.587 0 0 1 9.317 0 6.587 6.587 0 0 1 0 9.316 6.587 6.587 0 0 1-9.317 0 6.587 6.587 0 0 1 0-9.316z" stroke="#444" stroke-linejoin="round"/><path d="M36.882 43.47L70.765 9.589" stroke="#FFD070"/></g></svg>