<svg width="85" height="85" viewBox="0 0 85 85" xmlns="http://www.w3.org/2000/svg"><title>ICON/Life ring</title><g stroke-width="2" fill="none" fill-rule="evenodd" stroke-linecap="round" stroke-linejoin="round"><path d="M35.984 25.699L20.348 10.063M10.063 20.348l15.636 15.636m34.603 0l15.636-15.636M65.653 10.063L50.017 25.699m-.001 34.603l15.636 15.636m10.286-10.285L60.302 50.017m-34.603 0L10.063 65.653m10.285 10.285l15.636-15.636" stroke="#FFD070"/><path d="M71.284 14.716c10.836 10.836 14.155 26.342 9.958 40.038a39.821 39.821 0 0 1-9.958 16.53c-15.62 15.621-40.947 15.621-56.568 0-15.621-15.62-15.621-40.947 0-56.568 15.621-15.621 40.948-15.621 56.568 0z" stroke="#444"/><path d="M29.8 29.8c7.29-7.288 19.11-7.288 26.4 0 7.289 7.29 7.289 19.11 0 26.4-7.29 7.289-19.11 7.289-26.4 0-7.288-7.29-7.288-19.11 0-26.4z" stroke="#444"/></g></svg>