<svg width="78" height="87" viewBox="0 0 78 87" xmlns="http://www.w3.org/2000/svg"><title>Logo Ampersand</title><path d="M33.431 71.332c-9.993 0-17.526-5.044-17.526-11.729 0-7.819 7.744-9.736 14.285-9.95 9.931 3.695 17.576 8.507 22.76 14.314-3.333 3.456-8.57 7.365-19.519 7.365zm38.38-8.237c2.109-3.476 6.357-12.655 3.979-27.168l-.18-.827H60.417s.82 1.918 1.088 7.76c.105 2.47-.338 5.747-.845 7.88a64.067 64.067 0 0 0-1.661-1.336c-1.741-1.445-3.662-2.83-5.89-4.213-4.844-3.168-12.549-6.873-18.17-9.583l-1.632-.797c-5.07-2.445-7.799-6.743-6.95-10.949.584-2.918 1.818-4.963 3.767-6.243 2.574-1.693 6.275-2.273 9.961-1.526 2.01.403 4.808 1.504 7.832 3.164 4.596 2.528 7.6 6.072 7.62 6.101l11.042-11.026C62.48 9.692 56.411 4.262 47.328 1.99c-2.63-.66-5.456-.989-8.4-.989-6.395 0-12.7 1.62-16.849 4.355-5.242 3.442-8.729 8.84-10.086 15.609-1.259 6.238-.075 11.975 3.526 17.06-9.072 4.03-14.268 11.869-14.268 21.58C1.251 74.65 15.086 86 33.431 86c10.948 0 19.747-2.903 26.88-8.875.08.144.179.329.278.552.657 1.808.557 4.886.557 4.922l-.015 1.543h15.355l.011-1.509c.005-.11.327-10.738-4.686-19.538z" stroke="#FCB718" stroke-width="2" fill="none"/></svg>