<svg width="85" height="85" viewBox="0 0 85 85" xmlns="http://www.w3.org/2000/svg"><title>ICON/Map Pin</title><g stroke-width="2" fill="none" fill-rule="evenodd" stroke-linecap="round" stroke-linejoin="round"><path stroke="#444" d="M33.103 61.901h-14.76L5 83h74.725L66.381 61.901H51.536"/><path d="M69.176 28.533c0 15.76-26.813 43.918-26.813 43.918S15.549 44.292 15.549 28.533C15.55 12.375 29.405 3 42.363 3c12.957 0 26.813 9.375 26.813 25.533z" stroke="#FFD070"/><path d="M34.011 30.253a7.912 7.912 0 0 1 7.912-7.912 7.912 7.912 0 0 1 7.912 7.912 7.912 7.912 0 0 1-7.912 7.912 7.912 7.912 0 0 1-7.912-7.912z" stroke="#FFD070"/></g></svg>