<svg width="85" height="85" viewBox="0 0 85 85" xmlns="http://www.w3.org/2000/svg"><title>ICON/Money Tree</title><g stroke-width="2" fill="none" fill-rule="evenodd" stroke-linecap="round" stroke-linejoin="round"><path d="M43 83V45.4m0 28.8c0-12.749 5.46-18.4 22.4-18.4 0 14.326-6.44 18.4-22.4 18.4z" stroke="#444"/><path stroke="#828080" d="M3 3h80v42.4H3z"/><path d="M42.6 19a5.2 5.2 0 1 1 0 10.4 5.2 5.2 0 0 1 0-10.4z" stroke="#FFD070"/><path d="M67 11H19c0 4.356-3.6 7.92-8 7.92v10.56c4.4 0 8 3.564 8 7.92h48c0-4.356 3.6-7.92 8-7.92V18.92c-4.4 0-8-3.564-8-7.92z" stroke="#828080"/></g></svg>