<svg width="85" height="85" viewBox="0 0 85 85" xmlns="http://www.w3.org/2000/svg"><title>ICON/Piggybank</title><g stroke-width="2" fill="none" fill-rule="evenodd" stroke-linecap="round" stroke-linejoin="round"><path d="M76.424 50.529c3.418-.53 5.576-2.917 5.576-6.865 0-4.506-3.549-5.233-3.549-5.233M21.588 45.41a4.185 4.185 0 0 1 4.183-4.187 4.185 4.185 0 0 1 4.182 4.187 4.185 4.185 0 0 1-4.182 4.188 4.185 4.185 0 0 1-4.183-4.188z" stroke="#444"/><path d="M48.076 4c4.364 0 7.9 3.541 7.9 7.91s-3.536 7.91-7.9 7.91c-4.363 0-7.9-3.541-7.9-7.91S43.713 4 48.076 4z" stroke="#FFD070"/><path d="M50.2 72.355v7.952h13.112V70.34a22.533 22.533 0 0 0 13.112-20.516c0-12.444-9.98-22.531-22.29-22.531H33.191c-6.244-11.255-17.08-7.952-17.08-7.952l4.027 12.21a22.558 22.558 0 0 0-8.288 11.646H3v18.555h11.272a22.42 22.42 0 0 0 9.706 8.588v9.967H37.09v-7.952M34.6 71h18.588" stroke="#444"/><path d="M40.176 35h15.8" stroke="#CCC9C9"/></g></svg>