<svg width="85" height="85" viewBox="0 0 85 85" xmlns="http://www.w3.org/2000/svg"><title>ICON/Scales</title><g stroke-width="2" fill="none" fill-rule="evenodd"><path d="M17.979 14h18.686" stroke="#828080" stroke-linecap="round" stroke-linejoin="round"/><path d="M17.876 14.51L3.076 35.6m14.605-20.683L32.074 35.6m36.439-21.09l-14.8 21.09m14.606-20.683L82.71 35.6" stroke="#828080" stroke-linecap="round"/><path d="M83.942 36.48c0 5.148-7.503 9.765-15.868 9.765-8.364 0-15.867-4.617-15.867-9.765" stroke="#FFD070"/><path d="M52.125 36.667h31.899" stroke="#FFD070" stroke-linecap="round" stroke-linejoin="round"/><path d="M42 19.615v53.216M24.772 73h35.579" stroke="#444" stroke-linecap="round" stroke-linejoin="round"/><path d="M48.01 14h20.12" stroke="#828080" stroke-linecap="round" fill="#D8D8D8"/><path d="M42.686 9a4.883 4.883 0 1 1 0 9.765 4.883 4.883 0 0 1 0-9.765z" stroke="#444" stroke-linecap="round" stroke-linejoin="round"/><path d="M33.305 36.48c0 5.148-7.503 9.765-15.868 9.765S1.57 41.628 1.57 36.48" stroke="#FFD070"/><path d="M1.488 36.667h31.898" stroke="#FFD070" stroke-linecap="round" stroke-linejoin="round"/></g></svg>