<svg width="80" height="80" viewBox="0 0 80 80" xmlns="http://www.w3.org/2000/svg"><title>ICON/Speech Bubble</title><g stroke-width="2" fill="none" fill-rule="evenodd" stroke-linecap="round" stroke-linejoin="round"><path d="M26.067 56.864c3.677 7.814 13.478 13.416 25.026 13.416a34.16 34.16 0 0 0 8.68-1.123l10.32 6.176V64.201c4.697-3.644 7.6-8.629 7.6-14.131 0-5.69-3.103-10.818-8.082-14.491" stroke="#FCB718"/><path d="M36.2 4C17.311 4 2 15.876 2 30.526c0 6.312 2.854 12.101 7.6 16.656v17.45l17.26-8.606a43.408 43.408 0 0 0 9.34 1.027c18.889 0 34.2-11.877 34.2-26.527S55.089 4 36.2 4z" stroke="#444"/></g></svg>