<svg width="85" height="85" viewBox="0 0 85 85" xmlns="http://www.w3.org/2000/svg"><title>ICON/Tap</title><g stroke-width="2" fill="none" fill-rule="evenodd" stroke-linecap="round" stroke-linejoin="round"><path d="M8 75c0-5.067 8.036-13.333 8.036-13.333S24.072 69.933 24.072 75s-4.018 8-8.036 8S8 80.067 8 75z" stroke="#FFD070"/><path d="M34.787 3h32.145M50 16.333V3m11.575 18.667a13.36 13.36 0 0 0-10.715-5.334 13.356 13.356 0 0 0-10.716 5.334H29.43C17.613 21.667 8 31.237 8 43v8h16.073v-8c0-2.941 2.403-5.333 5.357-5.333h10.714A13.356 13.356 0 0 0 50.86 43a13.36 13.36 0 0 0 10.715-5.333h16.072v-16H61.575z" stroke="#444"/></g></svg>