<svg width="85" height="85" viewBox="0 0 85 85" xmlns="http://www.w3.org/2000/svg"><title>ICON/UFO</title><g stroke-width="2" fill="none" fill-rule="evenodd" stroke-linecap="round" stroke-linejoin="round"><path d="M43 24.333V13.667m40 50.666H3c0-5.89 4.776-10.666 10.667-10.666h58.666C78.224 53.667 83 58.443 83 64.333z" stroke="#444"/><path d="M43 75v8m13.333-10.667l5.334 8m-32-8l-5.334 8" stroke="#CCC9C9"/><path d="M69.667 53.667H16.333V51c0-14.728 11.939-26.667 26.667-26.667 14.728 0 26.667 11.939 26.667 26.667v2.667z" stroke="#444"/><path d="M37.667 8.333a5.334 5.334 0 1 1 10.667 0 5.334 5.334 0 0 1-10.667 0z" stroke="#FFD070"/><path d="M40.333 43a2.666 2.666 0 1 1 5.334 0 2.666 2.666 0 1 1-5.334 0zM27 43a2.666 2.666 0 1 1 5.333 0A2.666 2.666 0 1 1 27 43zm26.667 0A2.666 2.666 0 1 1 59 43a2.666 2.666 0 1 1-5.333 0z" stroke="#444"/></g></svg>