<svg width="85" height="85" viewBox="0 0 85 85" xmlns="http://www.w3.org/2000/svg"><title>ICON/Window</title><g fill="none" fill-rule="evenodd"><path d="M23.952 82h37.143M20.143 46h45.714M43 10.619v71.429" stroke="#828080" stroke-width="2" stroke-linecap="round" stroke-linejoin="round"/><path d="M3 10.619v71.429h21.2c0-8.433-8.824-21.692-15.9-26.455 11.374-4.838 25.176-25.133 25.176-44.974m49.524 0v71.429H61.8c0-8.433 8.824-21.692 15.9-26.455-11.374-4.838-25.176-25.023-25.176-44.974m30.476 0H3V3h80z" stroke="#444" stroke-width="2" stroke-linecap="round" stroke-linejoin="round"/><path d="M31.498 63.586V51.864m0 11.722l4.103-8.791m-4.689 7.619l-7.619-4.689m7.033 5.861l-7.033 3.517m8.205-3.517l-2.93 10.55M32.084 63l5.861 6.447M35.6 67.103h-5.86m-.586 2.93L25.05 60.07m2.346.586l9.377-1.759m-1.758 0v5.861" stroke="#FFD070" stroke-linecap="square"/></g></svg>