<?xml version="1.0" encoding="UTF-8"?>
<svg width="93px" height="93px" viewBox="0 0 93 93" version="1.1" xmlns="http://www.w3.org/2000/svg" xmlns:xlink="http://www.w3.org/1999/xlink">
    <!-- Generator: Sketch 42 (36781) - http://www.bohemiancoding.com/sketch -->
    <title>ICON/GLOBE</title>
    <desc>Created with Sketch.</desc>
    <defs></defs>
    <g id="SYMBOLS" stroke="none" stroke-width="1" fill="none" fill-rule="evenodd" stroke-linecap="round" stroke-linejoin="round">
        <g id="ICON/GLOBE" stroke-width="2">
            <g id="Group-2" transform="translate(7.000000, 0.000000)">
                <path d="M36.6810499,78.4944278 L36.6810499,90.5704936" id="Stroke-200" stroke="#444444"></path>
                <path d="M8.30229525,67.6259686 L0.452852468,75.4754113" id="Stroke-201" stroke="#444444"></path>
                <path d="M75.9282638,0 L68.078821,7.84944278" id="Stroke-202" stroke="#444444"></path>
                <path d="M60.8331815,1.50950823 C71.8525916,9.20800018 78.9472803,21.8878693 78.9472803,36.2281974 C78.9472803,59.625575 60.0784274,78.4944278 36.6810499,78.4944278 C20.9821644,78.4944278 7.39659031,70.0411817 0,57.3613126" id="Stroke-203" stroke="#444444"></path>
                <path d="M18.5669512,90.5704936 L54.7951486,90.5704936" id="Stroke-204" stroke="#444444"></path>
                <path d="M57.9651159,14.9441314 L15.3969839,57.5122634" id="Stroke-205" stroke="#FCB718"></path>
                <path d="M15.3969839,14.9441314 L57.9651159,57.5122634" id="Stroke-206" stroke="#FCB718"></path>
                <path d="M36.6810499,6.03803291 C53.3550778,6.03803291 66.8712144,19.5541696 66.8712144,36.2281974 C66.8712144,52.9022253 53.3550778,66.418362 36.6810499,66.418362 C20.007022,66.418362 6.49088537,52.9022253 6.49088537,36.2281974 C6.49088537,19.5541696 20.007022,6.03803291 36.6810499,6.03803291 L36.6810499,6.03803291 Z" id="Stroke-207" stroke="#FCB718"></path>
                <path d="M15.3335846,57.5762666 C8.61325394,50.855936 12.7236448,35.8499147 24.5129041,24.0606554 C36.3021633,12.2713962 51.3081846,8.16100528 58.0285153,14.8813359 C64.7488459,21.6016665 60.638455,36.6076878 48.8491957,48.3969471 C37.0599365,60.1862063 22.0539152,64.2965972 15.3335846,57.5762666 L15.3335846,57.5762666 Z" id="Stroke-208" stroke="#FCB718"></path>
            </g>
        </g>
    </g>
</svg>