<?xml version="1.0" encoding="UTF-8"?>
<svg width="38px" height="42px" viewBox="0 0 38 42" version="1.1" xmlns="http://www.w3.org/2000/svg" xmlns:xlink="http://www.w3.org/1999/xlink">
    <!-- Generator: Sketch 42 (36781) - http://www.bohemiancoding.com/sketch -->
    <title>Group</title>
    <desc>Created with Sketch.</desc>
    <defs></defs>
    <g id="Desktop" stroke="none" stroke-width="1" fill="none" fill-rule="evenodd">
        <g id="Menu-Open" transform="translate(-1237.000000, -29.000000)" fill="#F3B22D">
            <g id="Group" transform="translate(1237.000000, 29.000000)">
                <g id="Logo-Ampersand">
                    <path d="M16.2221604,34.7524386 C11.2233782,34.7524386 7.45552867,32.2598345 7.45552867,28.9569083 C7.45552867,25.0934683 11.329289,24.1459439 14.6011402,24.0400049 C19.5686135,25.8663045 23.3926392,28.2437832 25.9852828,31.1128781 C24.3184229,32.8209409 21.6986649,34.7524386 16.2221604,34.7524386 Z M35.4198869,30.6824546 C36.4749507,28.9644647 38.5999087,24.4293863 37.4101719,17.2581306 L37.3207394,16.8494876 L29.7200258,16.8494876 C29.7200258,16.8494876 30.1304865,17.797012 30.2645604,20.6837387 C30.3171413,21.9041857 30.0954326,23.5234967 29.841666,24.5769601 C29.5732187,24.3576738 29.294435,24.1337943 29.0108576,23.9174713 C28.1400517,23.2034572 27.1793639,22.5192246 26.0651279,21.8354365 C23.6417619,20.2702062 19.7876258,18.4394617 16.97597,17.1004815 L16.1598423,16.7068033 C13.6233749,15.498506 12.2585181,13.3746882 12.6829105,11.2966539 C12.9753263,9.85454994 13.5923656,8.84420299 14.5675843,8.21168045 C15.8551426,7.37498457 17.7064103,7.08843067 19.5501878,7.45751327 C20.5552173,7.65664897 21.9548283,8.20071614 23.4675408,9.02126188 C25.7665702,10.2704531 27.2692458,12.0211878 27.2791329,12.0358563 L32.8026756,6.58777627 C30.7523195,4.29519694 27.7168577,1.61175454 23.1739266,0.488504754 C21.8577559,0.162242252 20.4443629,0 18.9714981,0 C15.7729007,0 12.619394,0.80083961 10.5440208,2.15182121 C7.92171616,3.85247561 6.17770758,6.52006421 5.49864978,9.86432893 C4.86917683,12.9466354 5.46119898,15.7816521 7.26258218,18.2942586 C2.72444475,20.285171 0.125659235,24.1586863 0.125659235,28.9569083 C0.125659235,36.3917521 7.04611659,42 16.2221604,42 C21.6986649,42 26.0998822,40.5654525 29.6677445,37.6147179 C29.7074424,37.6856896 29.757177,37.7771083 29.8067619,37.8876404 C30.1352802,38.7809359 30.0855456,40.3015681 30.0855456,40.3196444 L30.0779056,41.0819607 L37.7587639,41.0819607 L37.764007,40.3363872 C37.7664039,40.2820101 37.9277419,35.0306951 35.4198869,30.6824546 L35.4198869,30.6824546 Z" id="R&amp;H_Symbol_Gold_RGB"></path>
                </g>
            </g>
        </g>
    </g>
</svg>