<?xml version="1.0" encoding="UTF-8"?>
<svg width="78px" height="87px" viewBox="0 0 78 87" version="1.1" xmlns="http://www.w3.org/2000/svg" xmlns:xlink="http://www.w3.org/1999/xlink">
    <!-- Generator: Sketch 42 (36781) - http://www.bohemiancoding.com/sketch -->
    <title>Logo Ampersand</title>
    <desc>Created with Sketch.</desc>
    <defs></defs>
    <g id="Desktop" stroke="none" stroke-width="1" fill="none" fill-rule="evenodd">
        <g id="R&amp;H" transform="translate(-755.000000, -3808.000000)" stroke="#FCB718" stroke-width="2">
            <g id="Resources" transform="translate(0.000000, 3560.000000)">
                <g id="Card-2" transform="translate(652.000000, 197.000000)">
                    <g id="Logo-Ampersand" transform="translate(104.000000, 52.000000)">
                        <path d="M32.4309802,70.3323162 C22.4375266,70.3323162 14.9049262,65.2877604 14.9049262,58.6032667 C14.9049262,50.7844002 22.6492612,48.8667913 29.1902729,48.6523909 C39.1211345,52.3484734 46.7660411,57.1600374 51.9491962,62.9665391 C48.616847,66.4233327 43.3794855,70.3323162 32.4309802,70.3323162 Z M70.8106456,62.0954439 C72.9199055,58.6185596 77.1680741,49.4404247 74.7895789,34.9271691 L74.6107874,34.1001535 L59.4156108,34.1001535 C59.4156108,34.1001535 60.2361947,36.0177623 60.5042321,41.8599474 C60.6093507,44.3298996 60.1661156,47.6070767 59.6587912,49.739086 C59.1221173,49.2952922 58.5647792,48.8422027 57.9978575,48.4044062 C56.2569619,46.9593777 54.3363764,45.5746212 52.1088207,44.1907643 C47.2640816,41.0230364 39.5589789,37.3179581 33.9379794,34.6081174 L32.3063952,33.8113876 C27.2355463,31.366024 24.5069552,27.0678214 25.355391,22.8622758 C25.9399822,19.943732 27.1735533,17.8989822 29.1231887,16.6188771 C31.6972464,14.925564 35.3982593,14.3456335 39.0842981,15.0925864 C41.0935306,15.4955991 43.8916017,16.5966874 46.9157827,18.2573157 C51.5119507,20.7854409 54.5160663,24.3285944 54.5358322,24.3582806 L65.5783753,13.3324044 C61.4793493,8.69266047 55.410922,3.26188418 46.3287957,0.988640573 C43.6975367,0.328347415 40.871913,0 37.9273946,0 C31.5328302,0 25.2284102,1.62074683 21.0793705,4.35487626 C15.8369177,7.79667684 12.3503348,13.195368 10.9927776,19.9635228 C9.7343494,26.201524 10.9179068,31.9390577 14.5191918,37.0240947 C5.44664899,41.0533223 0.251215132,48.8925793 0.251215132,58.6032667 C0.251215132,73.6499744 14.0864387,85 32.4309802,85 C43.3794855,85 52.1783008,82.0967492 59.3110912,76.1250243 C59.3904542,76.2686575 59.4898826,76.4536715 59.5890116,76.6773676 C60.2457781,78.4852275 60.1463497,81.5626973 60.1463497,81.5992803 L60.1310761,83.1420634 L75.4864762,83.1420634 L75.4969581,81.6331646 C75.5017498,81.5231157 75.8242932,70.8954545 70.8106456,62.0954439 L70.8106456,62.0954439 Z" id="R&amp;H_Symbol_Gold_RGB"></path>
                    </g>
                </g>
            </g>
        </g>
    </g>
</svg>