<?xml version="1.0" encoding="UTF-8"?>
<svg width="80px" height="80px" viewBox="0 0 80 80" version="1.1" xmlns="http://www.w3.org/2000/svg" xmlns:xlink="http://www.w3.org/1999/xlink">
    <!-- Generator: Sketch 42 (36781) - http://www.bohemiancoding.com/sketch -->
    <title>ICON/Speech Bubble</title>
    <desc>Created with Sketch.</desc>
    <defs></defs>
    <g id="SYMBOLS" stroke="none" stroke-width="1" fill="none" fill-rule="evenodd" stroke-linecap="round" stroke-linejoin="round">
        <g id="ICON/Speech-Bubble" stroke-width="2">
            <g id="Group-2" transform="translate(2.000000, 4.000000)">
                <path d="M24.0666667,52.8644211 C27.7438,60.6783158 37.5452667,66.2804211 49.0934667,66.2804211 C52.1372667,66.2804211 55.0493333,65.8724211 57.7726667,65.1574737 L68.0934667,71.3330526 L68.0934667,60.2008421 C72.7902667,56.5566316 75.6934667,51.5722105 75.6934667,46.0698947 C75.6934667,40.3806316 72.5901333,35.2522105 67.6108667,31.5789474" id="Stroke-869" stroke="#FCB718"></path>
                <path d="M34.2,0 C15.3114667,0 0,11.8762105 0,26.5263158 C0,32.8383158 2.8538,38.6273684 7.6,43.1823158 L7.6,60.6315789 L24.8596,52.0256842 C27.8324667,52.68 30.9573333,53.0526316 34.2,53.0526316 C53.0885333,53.0526316 68.4,41.1764211 68.4,26.5263158 C68.4,11.8762105 53.0885333,0 34.2,0 L34.2,0 Z" id="Stroke-870" stroke="#444444"></path>
            </g>
        </g>
    </g>
</svg>