<?xml version="1.0" encoding="UTF-8"?>
<svg width="85px" height="85px" viewBox="0 0 85 85" version="1.1" xmlns="http://www.w3.org/2000/svg" xmlns:xlink="http://www.w3.org/1999/xlink">
    <!-- Generator: Sketch 42 (36781) - http://www.bohemiancoding.com/sketch -->
    <title>ICON/Calculator</title>
    <desc>Created with Sketch.</desc>
    <defs></defs>
    <g id="SYMBOLS" stroke="none" stroke-width="1" fill="none" fill-rule="evenodd" stroke-linecap="round" stroke-linejoin="round">
        <g id="ICON/Calculator" stroke-width="2">
            <polygon id="Stroke-1116" stroke="#444444" points="74.8372093 80 6 80 6 0 74.8372093 0"></polygon>
            <polygon id="Stroke-1117" stroke="#444444" points="64.2468694 18.6666667 16.5903399 18.6666667 16.5903399 10.6666667 64.2468694 10.6666667"></polygon>
            <polygon id="Stroke-1118" stroke="#828080" points="27.1806798 37.3333333 16.5903399 37.3333333 16.5903399 29.3333333 27.1806798 29.3333333"></polygon>
            <polygon id="Stroke-1119" stroke="#828080" points="45.7137746 37.3333333 35.1234347 37.3333333 35.1234347 29.3333333 45.7137746 29.3333333"></polygon>
            <polygon id="Stroke-1120" stroke="#828080" points="64.2468694 37.3333333 53.6565295 37.3333333 53.6565295 29.3333333 64.2468694 29.3333333"></polygon>
            <polygon id="Stroke-1121" stroke="#828080" points="27.1806798 53.3333333 16.5903399 53.3333333 16.5903399 45.3333333 27.1806798 45.3333333"></polygon>
            <polygon id="Stroke-1122" stroke="#828080" points="45.7137746 53.3333333 35.1234347 53.3333333 35.1234347 45.3333333 45.7137746 45.3333333"></polygon>
            <polygon id="Stroke-1123" stroke="#828080" points="27.1806798 69.3333333 16.5903399 69.3333333 16.5903399 61.3333333 27.1806798 61.3333333"></polygon>
            <polygon id="Stroke-1124" stroke="#828080" points="45.7137746 69.3333333 35.1234347 69.3333333 35.1234347 61.3333333 45.7137746 61.3333333"></polygon>
            <polygon id="Stroke-1125" stroke="#FFD070" points="64.2468694 69.3333333 53.6565295 69.3333333 53.6565295 45.3333333 64.2468694 45.3333333"></polygon>
        </g>
    </g>
</svg>