<?xml version="1.0" encoding="UTF-8"?>
<svg width="24px" height="16px" viewBox="0 0 24 16" version="1.1" xmlns="http://www.w3.org/2000/svg" xmlns:xlink="http://www.w3.org/1999/xlink">
    <!-- Generator: Sketch 42 (36781) - http://www.bohemiancoding.com/sketch -->
    <title>ICON/Car-Small</title>
    <desc>Created with Sketch.</desc>
    <defs></defs>
    <g id="SYMBOLS" stroke="none" stroke-width="1" fill="none" fill-rule="evenodd" stroke-linecap="round" stroke-linejoin="round">
        <g id="Property-Icons/Small" transform="translate(-182.000000, -8.000000)" stroke="#3C3C3D">
            <g id="Property-Icons">
                <g id="ICON/Car-Small" transform="translate(183.000000, 9.000000)">
                    <polyline id="Stroke-4881" points="9.9996 3 9.9996 5 12.9996 5"></polyline>
                    <polyline id="Stroke-4895" points="19.949 11 22 11 22 5 17 5 15 0 6 0 4 5 0 5 0 11 2.05 11"></polyline>
                    <path d="M6.9488,11 L15.0498,11" id="Stroke-4897"></path>
                    <path d="M1.9996,11.5 C1.9996,10.119 3.1186,9 4.4996,9 C5.8806,9 6.9996,10.119 6.9996,11.5 C6.9996,12.881 5.8806,14 4.4996,14 C3.1186,14 1.9996,12.881 1.9996,11.5 L1.9996,11.5 Z" id="Stroke-4899"></path>
                    <path d="M14.9996,11.5 C14.9996,10.119 16.1186,9 17.4996,9 C18.8806,9 19.9996,10.119 19.9996,11.5 C19.9996,12.881 18.8806,14 17.4996,14 C16.1186,14 14.9996,12.881 14.9996,11.5 L14.9996,11.5 Z" id="Stroke-4901"></path>
                </g>
            </g>
        </g>
    </g>
</svg>