<?xml version="1.0" encoding="UTF-8"?>
<svg width="85px" height="85px" viewBox="0 0 85 85" version="1.1" xmlns="http://www.w3.org/2000/svg" xmlns:xlink="http://www.w3.org/1999/xlink">
    <!-- Generator: Sketch 42 (36781) - http://www.bohemiancoding.com/sketch -->
    <title>ICON/Girl Chat</title>
    <desc>Created with Sketch.</desc>
    <defs></defs>
    <g id="SYMBOLS" stroke="none" stroke-width="1" fill="none" fill-rule="evenodd" stroke-linecap="round" stroke-linejoin="round">
        <g id="ICON/Girl-Chat" stroke-width="2">
            <g id="Group-2" transform="translate(3.000000, 13.000000)">
                <path d="M55.137931,12.9908257 C42.5112103,12.9908257 32.2758621,23.2899794 32.2758621,35.9954128 L32.2758621,52.8654434 C32.2758621,52.8654434 38.3724138,59 55.137931,59 C71.9034483,59 78,52.8654434 78,52.8654434 L78,35.9954128 C78,23.2899794 67.7646517,12.9908257 55.137931,12.9908257 L55.137931,12.9908257 Z" id="Stroke-366" stroke="#FFD070"></path>
                <path d="M62.2510665,21.1100917 C58.0927129,26.5530728 51.5891266,30.0732449 44.2570533,30.0732449 C42.6379787,30.0732449 41.0605937,29.8963557 39.5370263,29.5709101 C38.6744295,31.6055191 38.1931034,33.8453502 38.1931034,36.1992787 C38.1931034,45.5031925 45.6593417,53.0458716 54.8689655,53.0458716 C64.0785893,53.0458716 71.5448276,45.5031925 71.5448276,36.1992787 C71.5448276,29.5762704 67.752585,23.8629782 62.2510665,21.1100917 L62.2510665,21.1100917 Z" id="Stroke-367" stroke="#FFD070"></path>
                <path d="M47.337931,35.7247706 C48.2295517,35.7247706 48.9517241,36.451445 48.9517241,37.3486239 C48.9517241,38.2458028 48.2295517,38.9724771 47.337931,38.9724771 C46.4463103,38.9724771 45.7241379,38.2458028 45.7241379,37.3486239 C45.7241379,36.451445 46.4463103,35.7247706 47.337931,35.7247706 L47.337931,35.7247706 Z" id="Stroke-368" stroke="#828080"></path>
                <path d="M62.4,35.7247706 C63.2916207,35.7247706 64.0137931,36.451445 64.0137931,37.3486239 C64.0137931,38.2458028 63.2916207,38.9724771 62.4,38.9724771 C61.5083793,38.9724771 60.7862069,38.2458028 60.7862069,37.3486239 C60.7862069,36.451445 61.5083793,35.7247706 62.4,35.7247706 L62.4,35.7247706 Z" id="Stroke-369" stroke="#828080"></path>
                <path d="M28.5103448,21.5431193 C30.8772414,19.2155963 32.2758621,16.2385321 32.2758621,12.9908257 C32.2758621,5.6293578 25.0675862,0 16.137931,0 C7.20827586,0 0,5.6293578 0,12.9908257 C0,20.3522936 7.20827586,26.2522936 16.137931,26.2522936 C17.697931,26.2522936 19.2041379,26.0357798 20.6565517,25.7110092 L29.0482759,29.2293578 L28.5103448,21.5431193 L28.5103448,21.5431193 Z" id="Stroke-567" stroke="#000000"></path>
            </g>
        </g>
    </g>
</svg>