<?xml version="1.0" encoding="UTF-8"?>
<svg width="84px" height="84px" viewBox="0 0 84 84" version="1.1" xmlns="http://www.w3.org/2000/svg" xmlns:xlink="http://www.w3.org/1999/xlink">
    <!-- Generator: Sketch 42 (36781) - http://www.bohemiancoding.com/sketch -->
    <title>ICON/Hand Holding</title>
    <desc>Created with Sketch.</desc>
    <defs></defs>
    <g id="SYMBOLS" stroke="none" stroke-width="1" fill="none" fill-rule="evenodd" stroke-linecap="round" stroke-linejoin="round">
        <g id="ICON/Hand-Holding" stroke-width="2">
            <g id="Hand-Holding" transform="translate(1.000000, 0.000000)">
                <path d="M4.92046646,44.0039682 C-2.61726939,33.0983079 -1.49462788,18.0228362 8.28839099,8.23981729 C16.9487683,-0.420560067 30.2600891,-2.00188082 40.6846174,2.97142107" id="Stroke-1399" stroke="#444444"></path>
                <path d="M65.8638627,57.956638 C68.1091457,60.2019211 71.6374476,60.2019211 73.8827306,57.956638 L74.043108,57.7962607 C76.1280136,55.711355 76.288391,52.1830531 74.2034853,49.9377701 L53.5148061,28.1264494" id="Stroke-1401" stroke="#444444"></path>
                <path d="M36.5148061,76.2398173 L42.1280136,81.8530248 C44.3732966,84.0983079 47.9015985,84.0983079 50.1468816,81.8530248 C52.3921646,79.6077418 52.3921646,76.0794399 50.1468816,73.8341569 L41.9949004,65.6821758" id="Stroke-1402" stroke="#444444"></path>
                <path d="M50.1470419,73.8341569 C52.3923249,76.0794399 55.9206268,76.0794399 58.1659099,73.8341569 C60.4111929,71.5888739 60.4111929,68.060572 58.1659099,65.815289" id="Stroke-1403" stroke="#444444"></path>
                <path d="M51.1093061,58.7585248 L57.9959099,65.6451286 C60.2411929,67.8904116 63.7791174,68.0604116 66.0244004,65.8151286 C68.2696834,63.5698456 68.1093061,60.2019211 65.8640231,57.956638 L58.8074193,50.9000343" id="Stroke-1404" stroke="#444444"></path>
                <path d="M72.7215985,48.3755343 C83.6272589,37.4698739 83.9865042,19.3055343 73.0808438,8.23949654 C62.1751834,-2.8265412 44.3732966,-2.66616384 33.3072589,8.23949654 L13.4204665,28.126289 C13.4204665,28.126289 23.043108,34.381006 33.3072589,24.116855 C33.3072589,24.116855 51.1091457,34.0602513 60.8921646,24.2772324" id="Stroke-1400" stroke="#FCB718"></path>
                <path d="M40.8449948,64.051138 L40.8449948,64.051138 C43.0902778,66.2964211 43.0902778,69.824723 40.8449948,72.070006 L34.9110325,78.0039682 C32.6657495,80.2492513 29.1374476,80.2492513 26.8921646,78.0039682 C24.6468816,75.7586852 24.6468816,72.2303833 26.8921646,69.9851003 L32.8261268,64.051138 C35.2317872,61.9662324 38.7600891,61.9662324 40.8449948,64.051138 L40.8449948,64.051138 Z" id="Stroke-1405" stroke="#FCB718"></path>
                <path d="M24.8072589,48.0134022 L24.8072589,48.0134022 C27.0525419,50.2586852 27.0525419,53.7869871 24.8072589,56.0322701 L18.8732966,61.9662324 C16.6280136,64.2115154 13.0997117,64.2115154 10.8544287,61.9662324 C8.6091457,59.7209494 8.6091457,56.1926475 10.8544287,53.9473645 L16.788391,48.0134022 C19.033674,45.7681192 22.7223532,45.7681192 24.8072589,48.0134022 L24.8072589,48.0134022 Z" id="Stroke-1406" stroke="#FCB718"></path>
                <path d="M16.788391,39.9945343 L16.788391,39.9945343 C19.033674,42.2398173 19.033674,45.7681192 16.788391,48.0134022 L10.8544287,53.9473645 C8.6091457,56.1926475 5.08084382,56.1926475 2.8355608,53.9473645 C0.590277778,51.7020814 0.590277778,48.1737796 2.8355608,45.9284965 L8.76952306,39.9945343 C11.0148061,37.7492513 14.543108,37.7492513 16.788391,39.9945343 L16.788391,39.9945343 Z" id="Stroke-1407" stroke="#FCB718"></path>
                <path d="M32.8261268,56.0322701 L32.8261268,56.0322701 C35.0714099,58.2775531 35.0714099,61.805855 32.8261268,64.051138 L26.8921646,69.9851003 C24.6468816,72.2303833 21.1185797,72.2303833 18.8732966,69.9851003 C16.6280136,67.7398173 16.6280136,64.2115154 18.8732966,61.9662324 L24.8072589,56.0322701 C27.0525419,53.7869871 30.5808438,53.7869871 32.8261268,56.0322701 L32.8261268,56.0322701 Z" id="Stroke-1408" stroke="#FCB718"></path>
            </g>
        </g>
    </g>
</svg>