<?xml version="1.0" encoding="UTF-8"?>
<svg width="85px" height="85px" viewBox="0 0 85 85" version="1.1" xmlns="http://www.w3.org/2000/svg" xmlns:xlink="http://www.w3.org/1999/xlink">
    <!-- Generator: Sketch 42 (36781) - http://www.bohemiancoding.com/sketch -->
    <title>ICON/Key</title>
    <desc>Created with Sketch.</desc>
    <defs></defs>
    <g id="SYMBOLS" stroke="none" stroke-width="1" fill="none" fill-rule="evenodd" stroke-linecap="round">
        <g id="ICON/Key" stroke-width="2">
            <path d="M66.942259,3 L31.8614476,37.9175577 C24.2126103,35.8795628 15.7194035,37.8399453 9.71916098,43.8401878 C0.760279672,52.7990692 0.760279672,67.3232959 9.71916098,76.280839 C18.6767041,85.2397203 33.2009308,85.2397203 42.1598122,76.280839 C48.1600547,70.2805965 50.1204372,61.7873897 48.0824423,54.1385524 L56.2370984,45.8206426 L56.2370984,35.1154819 L66.942259,35.1154819 L66.942259,24.4103213 L77.6474197,24.4103213 L83,19.057741 L83,3 L66.942259,3 L66.942259,3 Z" id="Stroke-4733" stroke="#444444" stroke-linejoin="round"></path>
            <path d="M16.2240447,57.6358094 C18.7972807,55.0625733 22.9674252,55.0625733 25.5406612,57.6358094 C28.1138972,60.2090454 28.1138972,64.3791899 25.5406612,66.9524259 C22.9674252,69.525662 18.7972807,69.525662 16.2240447,66.9524259 C13.6508086,64.3791899 13.6508086,60.2090454 16.2240447,57.6358094 Z" id="Stroke-4734" stroke="#444444" stroke-linejoin="round"></path>
            <path d="M36.8823529,43.4705882 L70.7647059,9.58823529" id="Line" stroke="#FFD070"></path>
        </g>
    </g>
</svg>