<?xml version="1.0" encoding="UTF-8"?>
<svg width="85px" height="85px" viewBox="0 0 85 85" version="1.1" xmlns="http://www.w3.org/2000/svg" xmlns:xlink="http://www.w3.org/1999/xlink">
    <!-- Generator: Sketch 42 (36781) - http://www.bohemiancoding.com/sketch -->
    <title>ICON/Piggybank</title>
    <desc>Created with Sketch.</desc>
    <defs></defs>
    <g id="SYMBOLS" stroke="none" stroke-width="1" fill="none" fill-rule="evenodd" stroke-linecap="round" stroke-linejoin="round">
        <g id="ICON/Piggybank" stroke-width="2">
            <path d="M76.4235294,50.5285477 C79.8422898,49.9989576 82,47.6119649 82,43.6643446 C82,39.1577126 78.4511003,38.4311253 78.4511003,38.4311253" id="Stroke-1135" stroke="#444444"></path>
            <path d="M21.5882353,45.4104074 C21.5882353,43.0974733 23.4605353,41.2228381 25.7705882,41.2228381 C28.0806412,41.2228381 29.9529412,43.0974733 29.9529412,45.4104074 C29.9529412,47.7233415 28.0806412,49.5979767 25.7705882,49.5979767 C23.4605353,49.5979767 21.5882353,47.7233415 21.5882353,45.4104074 L21.5882353,45.4104074 Z" id="Stroke-1136" stroke="#444444"></path>
            <path d="M48.0764706,4 C52.4399039,4 55.9764706,7.54097757 55.9764706,11.9098531 C55.9764706,16.2787286 52.4399039,19.8197062 48.0764706,19.8197062 C43.7130373,19.8197062 40.1764706,16.2787286 40.1764706,11.9098531 C40.1764706,7.54097757 43.7130373,4 48.0764706,4 Z" id="Stroke-1137" stroke="#FFD070"></path>
            <path d="M50.2008403,72.3547418 L50.2008403,80.3068182 L63.3121849,80.3068182 L63.3121849,70.3402157 C71.0387002,66.8015417 76.4235294,58.955493 76.4235294,49.8238586 C76.4235294,37.3801844 66.4444851,27.2929754 54.1342437,27.2929754 L33.1914931,27.2929754 C26.9465597,16.0381366 16.1113445,19.340899 16.1113445,19.340899 L20.1378384,31.5513124 C16.2477025,34.3888783 13.2924055,38.45504 11.8501576,43.1971283 L3,43.1971283 L3,61.7519732 L14.2718229,61.7519732 C16.5925309,65.4987266 19.9621464,68.5006354 23.9781513,70.3402157 L23.9781513,80.3068182 L37.0894958,80.3068182 L37.0894958,72.3547418" id="Stroke-1138" stroke="#444444"></path>
            <path d="M34.6,71 L53.1882353,71" id="Stroke-1139" stroke="#444444"></path>
            <path d="M40.1764706,35 L55.9764706,35" id="Stroke-1140" stroke="#CCC9C9"></path>
        </g>
    </g>
</svg>