<?xml version="1.0" encoding="UTF-8"?>
<svg width="85px" height="85px" viewBox="0 0 85 85" version="1.1" xmlns="http://www.w3.org/2000/svg" xmlns:xlink="http://www.w3.org/1999/xlink">
    <!-- Generator: Sketch 42 (36781) - http://www.bohemiancoding.com/sketch -->
    <title>ICON/Tap</title>
    <desc>Created with Sketch.</desc>
    <defs></defs>
    <g id="SYMBOLS" stroke="none" stroke-width="1" fill="none" fill-rule="evenodd" stroke-linecap="round" stroke-linejoin="round">
        <g id="ICON/Tap" stroke-width="2">
            <path d="M8,75 C8,69.9333333 16.0361991,61.6666667 16.0361991,61.6666667 C16.0361991,61.6666667 24.0723982,69.9333333 24.0723982,75 C24.0723982,80.0666667 20.0542986,83 16.0361991,83 C12.0180995,83 8,80.0666667 8,75 L8,75 Z" id="Stroke-135" stroke="#FFD070"></path>
            <path d="M34.7873303,3 L66.9321267,3" id="Stroke-136" stroke="#444444"></path>
            <path d="M50,16.3333333 L50,3" id="Stroke-137" stroke="#444444"></path>
            <path d="M61.5750624,21.6666667 C59.1320579,18.42 55.247895,16.3333333 50.8601303,16.3333333 C46.4710262,16.3333333 42.5868633,18.4186667 40.1438588,21.6666667 L29.4302661,21.6666667 C17.6130353,21.6666667 8.00040181,31.2373333 8.00040181,43 L8.00040181,51 L24.0728,51 L24.0728,43 C24.0728,40.0586667 26.4756235,37.6666667 29.4302661,37.6666667 L40.1438588,37.6666667 C42.5868633,40.9146667 46.4710262,43 50.8601303,43 C55.247895,43 59.1320579,40.9133333 61.5750624,37.6666667 L77.6474606,37.6666667 L77.6474606,21.6666667 L61.5750624,21.6666667 L61.5750624,21.6666667 Z" id="Stroke-138" stroke="#444444"></path>
        </g>
    </g>
</svg>