<?xml version="1.0" encoding="UTF-8"?>
<svg width="85px" height="85px" viewBox="0 0 85 85" version="1.1" xmlns="http://www.w3.org/2000/svg" xmlns:xlink="http://www.w3.org/1999/xlink">
    <!-- Generator: Sketch 42 (36781) - http://www.bohemiancoding.com/sketch -->
    <title>ICON/UFO</title>
    <desc>Created with Sketch.</desc>
    <defs></defs>
    <g id="SYMBOLS" stroke="none" stroke-width="1" fill="none" fill-rule="evenodd" stroke-linecap="round" stroke-linejoin="round">
        <g id="ICON/UFO" stroke-width="2">
            <g id="Group-2" transform="translate(3.000000, 3.000000)">
                <path d="M40,21.3333333 L40,10.6666667" id="Stroke-4763" stroke="#444444"></path>
                <path d="M80,61.3333333 L0,61.3333333 C0,55.4426667 4.776,50.6666667 10.6666667,50.6666667 L69.3333333,50.6666667 C75.224,50.6666667 80,55.4426667 80,61.3333333 L80,61.3333333 L80,61.3333333 Z" id="Stroke-4764" stroke="#444444"></path>
                <path d="M40,72 L40,80" id="Stroke-4765" stroke="#CCC9C9"></path>
                <path d="M53.3333333,69.3333333 L58.6666667,77.3333333" id="Stroke-4766" stroke="#CCC9C9"></path>
                <path d="M26.6666667,69.3333333 L21.3333333,77.3333333" id="Stroke-4767" stroke="#CCC9C9"></path>
                <path d="M66.6666667,50.6666667 L13.3333333,50.6666667 L13.3333333,48 C13.3333333,33.272 25.272,21.3333333 40,21.3333333 L40,21.3333333 C54.728,21.3333333 66.6666667,33.272 66.6666667,48 L66.6666667,50.6666667 L66.6666667,50.6666667 Z" id="Stroke-4768" stroke="#444444"></path>
                <path d="M34.6666667,5.33333333 C34.6666667,2.388 37.0546667,0 40,0 C42.9453333,0 45.3333333,2.388 45.3333333,5.33333333 C45.3333333,8.27866667 42.9453333,10.6666667 40,10.6666667 C37.0546667,10.6666667 34.6666667,8.27866667 34.6666667,5.33333333 L34.6666667,5.33333333 Z" id="Stroke-4769" stroke="#FFD070"></path>
                <path d="M37.3333333,40 C37.3333333,38.5266667 38.5266667,37.3333333 40,37.3333333 C41.4733333,37.3333333 42.6666667,38.5266667 42.6666667,40 C42.6666667,41.4733333 41.4733333,42.6666667 40,42.6666667 C38.5266667,42.6666667 37.3333333,41.4733333 37.3333333,40 L37.3333333,40 Z" id="Stroke-4770" stroke="#444444"></path>
                <path d="M24,40 C24,38.5266667 25.1933333,37.3333333 26.6666667,37.3333333 C28.14,37.3333333 29.3333333,38.5266667 29.3333333,40 C29.3333333,41.4733333 28.14,42.6666667 26.6666667,42.6666667 C25.1933333,42.6666667 24,41.4733333 24,40 L24,40 Z" id="Stroke-4771" stroke="#444444"></path>
                <path d="M50.6666667,40 C50.6666667,38.5266667 51.86,37.3333333 53.3333333,37.3333333 C54.8066667,37.3333333 56,38.5266667 56,40 C56,41.4733333 54.8066667,42.6666667 53.3333333,42.6666667 C51.86,42.6666667 50.6666667,41.4733333 50.6666667,40 L50.6666667,40 Z" id="Stroke-4772" stroke="#444444"></path>
            </g>
        </g>
    </g>
</svg>